<?xml version="1.0" standalone="no"?>
<!DOCTYPE svg PUBLIC "-//W3C//DTD SVG 20010904//EN"
 "http://www.w3.org/TR/2001/REC-SVG-20010904/DTD/svg10.dtd">
<svg version="1.0" xmlns="http://www.w3.org/2000/svg"
 width="91.000000pt" height="91.000000pt" viewBox="0 0 91.000000 91.000000"
 preserveAspectRatio="xMidYMid meet">
<metadata>
Created by potrace 1.11, written by Peter Selinger 2001-2013
</metadata>
<g transform="translate(0.000000,91.000000) scale(0.100000,-0.100000)"
fill="#000000" stroke="none">
<path d="M340 876 c-201 -58 -331 -241 -318 -445 12 -184 123 -328 299 -387
225 -76 468 51 548 287 28 84 27 168 -3 258 -42 126 -137 227 -253 271 -71 28
-206 36 -273 16z m255 -27 c52 -19 127 -71 125 -85 -1 -4 2 -10 7 -13 4 -3 21
-25 37 -48 16 -24 32 -41 36 -38 4 2 12 -7 19 -21 8 -18 8 -23 0 -18 -8 4 -9
-1 -4 -16 5 -15 1 -28 -13 -43 -11 -12 -23 -33 -27 -46 l-7 -24 -22 28 c-29
36 -41 19 -21 -29 19 -46 19 -46 -9 -46 -23 0 -25 4 -28 53 -2 43 0 54 16 62
25 13 25 25 1 39 -11 6 -24 16 -28 21 -6 6 -10 5 -14 -4 -5 -11 -7 -11 -14 0
-6 11 -13 9 -31 -7 -28 -25 -55 -36 -62 -25 -8 12 31 44 43 36 7 -3 8 0 5 9
-9 24 -26 19 -57 -13 -27 -29 -27 -30 -8 -40 11 -6 40 -11 65 -11 l45 0 3 -72
3 -71 73 2 72 2 0 -70 0 -71 -75 0 -75 0 0 -80 0 -80 -65 0 -65 0 0 80 0 80
-80 0 -80 0 0 65 c0 60 -9 80 -26 54 -3 -6 -15 -9 -25 -6 -29 8 -24 -27 6 -47
21 -14 25 -24 25 -66 0 -40 -5 -55 -28 -79 -15 -16 -33 -38 -41 -47 -14 -16
-17 -12 -42 42 -16 33 -34 58 -41 57 -7 -2 -21 11 -30 28 -16 27 -16 34 -4 70
13 36 12 41 -2 46 -10 3 -26 14 -37 24 -11 9 -29 19 -40 21 -18 3 -20 -2 -16
-47 5 -70 35 -146 83 -208 37 -47 38 -49 9 -22 -38 35 -74 93 -95 153 -19 53
-29 165 -14 156 7 -4 9 8 6 37 -10 91 85 235 197 299 107 61 235 72 350 29z"/>
<path d="M475 829 c-5 -13 -28 -32 -49 -44 -22 -11 -42 -27 -44 -35 -3 -10 3
-8 19 7 13 12 36 25 52 28 15 4 33 17 39 29 6 11 12 22 13 24 8 10 75 -29 75
-44 0 -12 3 -14 13 -6 6 5 21 12 32 14 16 4 12 8 -20 23 -22 10 -58 20 -80 22
-34 4 -41 2 -50 -18z"/>
<path d="M243 784 c-3 -8 -11 -13 -17 -11 -14 6 -62 -31 -52 -40 3 -3 14 1 24
10 10 10 25 17 33 17 16 0 39 19 39 32 0 14 -20 8 -27 -8z"/>
<path d="M300 770 c-8 -5 -10 -10 -5 -10 6 0 17 5 25 10 8 5 11 10 5 10 -5 0
-17 -5 -25 -10z"/>
<path d="M490 770 c-8 -5 -11 -12 -7 -16 4 -4 13 -2 19 4 15 15 7 24 -12 12z"/>
<path d="M627 773 c-4 -3 -7 -15 -7 -25 0 -15 -5 -18 -20 -13 -11 3 -20 2 -20
-4 0 -14 40 -25 51 -14 13 13 21 63 11 63 -5 0 -12 -3 -15 -7z"/>
<path d="M685 770 c3 -5 11 -10 16 -10 6 0 7 5 4 10 -3 6 -11 10 -16 10 -6 0
-7 -4 -4 -10z"/>
<path d="M525 700 c-3 -5 -1 -10 4 -10 6 0 11 5 11 10 0 6 -2 10 -4 10 -3 0
-8 -4 -11 -10z"/>
<path d="M246 645 c-53 -28 -108 -106 -85 -121 5 -3 9 3 9 14 0 17 50 74 95
107 26 19 18 19 -19 0z"/>
<path d="M95 548 c-27 -15 -33 -27 -28 -49 6 -22 14 -24 31 -7 15 15 16 31 0
22 -7 -4 -8 -3 -4 4 4 7 14 12 22 12 8 0 14 7 14 15 0 18 -8 18 -35 3z"/>
<path d="M540 480 l0 -69 -77 -3 -78 -3 -3 -47 -3 -48 80 0 81 0 0 -86 0 -85
43 3 42 3 3 82 3 82 77 3 77 3 0 45 0 45 -75 1 -75 1 -3 72 -3 71 -44 0 -45 0
0 -70z"/>
<path d="M114 487 c-5 -15 22 -67 35 -67 3 0 13 5 21 10 12 7 9 14 -18 41 -25
25 -33 28 -38 16z"/>
<path d="M395 439 c-31 -5 -21 -6 44 -8 46 0 82 2 78 5 -9 9 -76 11 -122 3z"/>
<path d="M260 405 c0 -8 5 -15 10 -15 6 0 10 7 10 15 0 8 -4 15 -10 15 -5 0
-10 -7 -10 -15z"/>
</g>
</svg>
